<svg viewBox = "0 0 151.6 58.7" width="151.6" height="58.7" xmlns="http://www.w3.org/2000/svg"><g transform="matrix(1 0 0 1 75.8 29.35)"  ><g style=""   ><g transform="matrix(1 0 0 1 -31.6 10.75)" id="Layer_1"  ><path style="stroke: none; stroke-width: 1; stroke-dasharray: none; stroke-linecap: butt; stroke-dashoffset: 0; stroke-linejoin: miter; stroke-miterlimit: 4; fill: rgb(23,26,31); fill-rule: nonzero; opacity: 1;"  transform=" translate(-44.2, -40.1)" d="M 44.2 37.7 C 44.900000000000006 37.7 45.400000000000006 37.900000000000006 45.900000000000006 38.400000000000006 C 46.400000000000006 38.900000000000006 46.60000000000001 39.400000000000006 46.60000000000001 40.10000000000001 C 46.60000000000001 40.80000000000001 46.400000000000006 41.30000000000001 45.900000000000006 41.80000000000001 C 45.400000000000006 42.30000000000001 44.900000000000006 42.500000000000014 44.2 42.500000000000014 C 43.5 42.500000000000014 43 42.30000000000001 42.5 41.80000000000001 C 42 41.30000000000001 41.8 40.80000000000001 41.8 40.10000000000001 C 41.8 39.400000000000006 42 38.900000000000006 42.5 38.400000000000006 C 42.9 37.9 43.5 37.7 44.2 37.7 z" stroke-linecap="round" /></g><g transform="matrix(1 0 0 1 -16.6 3.9)" id="Layer_1"  ><path style="stroke: none; stroke-width: 1; stroke-dasharray: none; stroke-linecap: butt; stroke-dashoffset: 0; stroke-linejoin: miter; stroke-miterlimit: 4; fill: rgb(23,26,31); fill-rule: nonzero; opacity: 1;"  transform=" translate(-59.2, -33.25)" d="M 55.3 26.5 C 55.3 26.9 55.3 27.3 55.3 27.6 C 55.8 27.200000000000003 56.3 26.900000000000002 56.8 26.6 C 57.3 26.3 57.8 26 58.3 25.700000000000003 C 58.8 25.400000000000002 59.3 25.300000000000004 59.8 25.1 C 60.3 25 60.9 24.900000000000002 61.5 24.900000000000002 C 63.1 24.900000000000002 64.2 25.400000000000002 64.8 26.400000000000002 C 65.39999999999999 27.400000000000002 65.7 28.700000000000003 65.7 30.1 L 65.7 38.1 C 65.7 39 65.9 39.6 66.2 40 C 66.5 40.4 67.2 40.5 68.2 40.5 L 68.2 41.7 C 67.9 41.7 67.4 41.7 66.60000000000001 41.7 C 65.80000000000001 41.7 65.10000000000001 41.7 64.30000000000001 41.7 C 63.500000000000014 41.7 62.70000000000001 41.7 62.000000000000014 41.7 C 61.30000000000001 41.7 60.80000000000001 41.7 60.500000000000014 41.7 L 60.500000000000014 40.400000000000006 C 61.500000000000014 40.400000000000006 62.100000000000016 40.2 62.40000000000001 39.900000000000006 C 62.70000000000001 39.50000000000001 62.80000000000001 38.900000000000006 62.80000000000001 38.00000000000001 L 62.80000000000001 30.000000000000007 C 62.80000000000001 28.900000000000006 62.60000000000001 28.10000000000001 62.10000000000001 27.700000000000006 C 61.60000000000001 27.200000000000006 60.80000000000001 27.000000000000007 59.80000000000001 27.000000000000007 C 59.500000000000014 27.000000000000007 59.20000000000001 27.10000000000001 58.80000000000001 27.200000000000006 C 58.40000000000001 27.300000000000004 58.000000000000014 27.500000000000007 57.60000000000001 27.700000000000006 C 57.20000000000001 27.900000000000006 56.80000000000001 28.100000000000005 56.400000000000006 28.400000000000006 C 56.00000000000001 28.700000000000006 55.7 28.900000000000006 55.50000000000001 29.100000000000005 L 55.50000000000001 38.00000000000001 C 55.50000000000001 38.900000000000006 55.60000000000001 39.50000000000001 55.900000000000006 39.900000000000006 C 56.2 40.300000000000004 56.900000000000006 40.400000000000006 57.900000000000006 40.400000000000006 L 57.900000000000006 41.7 C 57.60000000000001 41.7 57.00000000000001 41.7 56.300000000000004 41.6 C 55.6 41.6 54.800000000000004 41.6 54.00000000000001 41.6 C 53.20000000000001 41.6 52.400000000000006 41.6 51.70000000000001 41.6 C 51.00000000000001 41.6 50.50000000000001 41.6 50.20000000000001 41.7 L 50.20000000000001 40.400000000000006 C 51.20000000000001 40.400000000000006 51.80000000000001 40.2 52.10000000000001 39.900000000000006 C 52.400000000000006 39.50000000000001 52.50000000000001 38.900000000000006 52.50000000000001 38.00000000000001 L 52.50000000000001 30.10000000000001 C 52.50000000000001 29.000000000000007 52.400000000000006 28.300000000000008 52.20000000000001 28.000000000000007 C 52.000000000000014 27.700000000000006 51.40000000000001 27.500000000000007 50.50000000000001 27.500000000000007 L 50.50000000000001 26.400000000000006 C 51.20000000000001 26.300000000000004 51.900000000000006 26.100000000000005 52.50000000000001 25.900000000000006 C 53.10000000000001 25.600000000000005 53.70000000000001 25.300000000000004 54.20000000000001 24.800000000000004 L 55.50000000000001 24.800000000000004 C 55.4 25.6 55.4 26.1 55.3 26.5 z" stroke-linecap="round" /></g><g transform="matrix(1 0 0 1 2 4.3)" id="Layer_1"  ><path style="stroke: none; stroke-width: 1; stroke-dasharray: none; stroke-linecap: butt; stroke-dashoffset: 0; stroke-linejoin: miter; stroke-miterlimit: 4; fill: rgb(23,26,31); fill-rule: nonzero; opacity: 1;"  transform=" translate(-77.8, -33.65)" d="M 85.5 40.4 C 85 40.9 84.4 41.3 83.8 41.8 C 83.2 42.199999999999996 82.5 42.5 81.8 42.5 C 81.1 42.5 80.6 42.3 80.2 41.8 C 79.8 41.3 79.60000000000001 40.8 79.60000000000001 40.3 C 79.10000000000001 40.8 78.4 41.3 77.4 41.8 C 76.4 42.3 75.30000000000001 42.5 74.10000000000001 42.5 C 72.9 42.5 72.00000000000001 42.1 71.2 41.4 C 70.4 40.699999999999996 70.10000000000001 39.8 70.10000000000001 38.699999999999996 C 70.10000000000001 37.8 70.4 37.099999999999994 70.9 36.4 C 71.4 35.8 72.10000000000001 35.199999999999996 72.9 34.8 C 73.7 34.4 74.7 33.9 75.9 33.5 C 77 33.1 78.2 32.8 79.5 32.4 L 79.5 30.2 C 79.5 29.2 79.3 28.5 78.8 27.9 C 78.3 27.299999999999997 77.6 27 76.5 27 C 75.7 27 75 27.2 74.4 27.7 C 73.80000000000001 28.2 73.5 28.8 73.5 29.5 C 73.5 30.1 73.4 30.5 73.1 30.8 C 72.8 31.1 72.39999999999999 31.2 72 31.2 C 71.60000000000001 31.2 71.2 31.099999999999998 71 30.8 C 70.8 30.5 70.7 30.2 70.7 29.8 C 70.7 29.1 71 28.5 71.60000000000001 28 C 72.2 27.4 73.2 26.8 74.60000000000001 26 C 75.4 25.6 76.00000000000001 25.3 76.50000000000001 25.1 C 77.00000000000001 24.900000000000002 77.60000000000001 24.8 78.20000000000002 24.8 C 79.40000000000002 24.8 80.50000000000001 25.1 81.30000000000001 25.8 C 82.20000000000002 26.5 82.60000000000001 27.5 82.60000000000001 28.8 L 82.60000000000001 38 C 82.60000000000001 39.2 82.80000000000001 39.8 83.2 39.9 C 83.60000000000001 40 84.3 39.699999999999996 85.4 39 L 85.5 40.4 z M 79.6 33.8 C 77.3 34.4 75.69999999999999 35 74.69999999999999 35.599999999999994 C 73.69999999999999 36.19999999999999 73.19999999999999 36.99999999999999 73.19999999999999 37.99999999999999 C 73.19999999999999 38.99999999999999 73.39999999999999 39.599999999999994 73.79999999999998 39.89999999999999 C 74.19999999999999 40.19999999999999 74.89999999999998 40.39999999999999 75.69999999999999 40.39999999999999 C 76.39999999999999 40.39999999999999 77.1 40.19999999999999 77.79999999999998 39.69999999999999 C 78.49999999999999 39.29999999999999 79.09999999999998 38.79999999999999 79.59999999999998 38.29999999999999 L 79.59999999999998 33.8 z" stroke-linecap="round" /></g><g transform="matrix(1 0 0 1 16.45 2.65)" id="Layer_1"  ><path style="stroke: none; stroke-width: 1; stroke-dasharray: none; stroke-linecap: butt; stroke-dashoffset: 0; stroke-linejoin: miter; stroke-miterlimit: 4; fill: rgb(23,26,31); fill-rule: nonzero; opacity: 1;"  transform=" translate(-92.25, -32)" d="M 92.2 37.2 C 92.2 38.5 92.4 39.300000000000004 92.7 39.7 C 93 40.1 93.4 40.300000000000004 93.9 40.300000000000004 C 94.2 40.300000000000004 94.7 40.2 95.4 39.900000000000006 C 96.10000000000001 39.60000000000001 96.60000000000001 39.300000000000004 97 38.900000000000006 L 97.7 39.900000000000006 C 97 40.60000000000001 96.3 41.2 95.4 41.60000000000001 C 94.50000000000001 42.000000000000014 93.7 42.20000000000001 92.80000000000001 42.20000000000001 C 91.70000000000002 42.20000000000001 90.80000000000001 41.90000000000001 90.20000000000002 41.30000000000001 C 89.60000000000002 40.70000000000001 89.20000000000002 39.80000000000001 89.20000000000002 38.70000000000001 L 89.20000000000002 27.8 L 86.80000000000001 27.8 L 86.80000000000001 26.900000000000002 C 88.00000000000001 26.6 88.80000000000001 26.000000000000004 89.4 25.200000000000003 C 90 24.400000000000002 90.4 23.200000000000003 90.60000000000001 21.800000000000004 L 92.10000000000001 21.800000000000004 L 92.10000000000001 25.900000000000006 L 97.50000000000001 25.900000000000006 L 97.50000000000001 27.800000000000004 L 92.10000000000001 27.800000000000004 L 92.10000000000001 37.2 z" stroke-linecap="round" /></g><g transform="matrix(1 0 0 1 32.1 4.58)" id="Layer_1"  ><path style="stroke: none; stroke-width: 1; stroke-dasharray: none; stroke-linecap: butt; stroke-dashoffset: 0; stroke-linejoin: miter; stroke-miterlimit: 4; fill: rgb(23,26,31); fill-rule: nonzero; opacity: 1;"  transform=" translate(-107.9, -33.93)" d="M 111.4 39.7 C 110.30000000000001 40.6 109.30000000000001 41.300000000000004 108.4 41.7 C 107.5 42.1 106.4 42.400000000000006 105.10000000000001 42.400000000000006 C 104.60000000000001 42.400000000000006 104.10000000000001 42.300000000000004 103.7 42.2 C 103.3 42.1 102.8 41.800000000000004 102.4 41.400000000000006 C 102.00000000000001 41.00000000000001 101.7 40.60000000000001 101.5 40.00000000000001 C 101.3 39.400000000000006 101.1 38.800000000000004 101.1 37.900000000000006 L 101.1 28.500000000000007 C 101.1 27.800000000000008 101 27.300000000000008 100.69999999999999 27.10000000000001 C 100.39999999999999 26.90000000000001 99.89999999999999 26.800000000000008 98.99999999999999 26.70000000000001 L 98.99999999999999 25.60000000000001 C 99.59999999999998 25.60000000000001 100.39999999999999 25.60000000000001 101.39999999999999 25.500000000000007 C 102.39999999999999 25.400000000000006 103.3 25.400000000000006 104.19999999999999 25.300000000000008 C 104.19999999999999 25.800000000000008 104.1 26.300000000000008 104.1 27.000000000000007 C 104.1 27.700000000000006 104.1 28.200000000000006 104.1 28.500000000000007 L 104.1 36.00000000000001 C 104.1 37.70000000000001 104.3 38.800000000000004 104.69999999999999 39.300000000000004 C 105.09999999999998 39.800000000000004 105.69999999999999 40.1 106.6 40.1 C 107.3 40.1 108.1 39.9 109.1 39.5 C 110 39.1 110.89999999999999 38.5 111.5 37.9 L 111.5 28.5 C 111.5 27.8 111.3 27.3 111 27.1 C 110.7 26.900000000000002 110 26.700000000000003 109.1 26.700000000000003 L 109.1 25.6 C 109.69999999999999 25.6 110.5 25.6 111.6 25.5 C 112.69999999999999 25.4 113.69999999999999 25.4 114.6 25.3 C 114.6 25.8 114.5 26.3 114.5 27 C 114.5 27.7 114.5 28.2 114.5 28.5 L 114.5 39 C 114.5 39.6 114.6 40 114.9 40.1 C 115.2 40.2 115.80000000000001 40.2 116.80000000000001 40.2 L 116.80000000000001 41.300000000000004 C 116.60000000000001 41.300000000000004 116.30000000000001 41.400000000000006 115.9 41.50000000000001 C 115.5 41.60000000000001 115.10000000000001 41.70000000000001 114.7 41.800000000000004 C 114.3 41.900000000000006 113.9 42.00000000000001 113.5 42.2 C 113.1 42.300000000000004 112.7 42.400000000000006 112.4 42.5 C 112.2 42.6 112 42.6 111.80000000000001 42.4 C 111.60000000000001 42.3 111.50000000000001 42.1 111.50000000000001 41.9 L 111.50000000000001 39.7 z" stroke-linecap="round" /></g><g transform="matrix(1 0 0 1 48.65 4.1)" id="Layer_1"  ><path style="stroke: none; stroke-width: 1; stroke-dasharray: none; stroke-linecap: butt; stroke-dashoffset: 0; stroke-linejoin: miter; stroke-miterlimit: 4; fill: rgb(23,26,31); fill-rule: nonzero; opacity: 1;"  transform=" translate(-124.45, -33.45)" d="M 123.8 28.2 C 124.39999999999999 27.3 125.1 26.5 126 25.9 C 126.9 25.2 127.7 24.9 128.4 24.9 C 128.9 24.9 129.4 25.099999999999998 129.9 25.4 C 130.4 25.7 130.70000000000002 26.299999999999997 130.70000000000002 27 C 130.70000000000002 27.5 130.50000000000003 28 130.10000000000002 28.4 C 129.70000000000002 28.799999999999997 129.3 29 128.8 29 C 128.5 29 128.20000000000002 29 128 28.9 C 127.8 28.799999999999997 127.6 28.7 127.4 28.599999999999998 C 127.20000000000002 28.499999999999996 127.10000000000001 28.4 127 28.299999999999997 C 126.9 28.199999999999996 126.7 28.099999999999998 126.5 28.099999999999998 C 126.2 28.099999999999998 126 28.2 125.7 28.299999999999997 C 125.4 28.399999999999995 125.10000000000001 28.699999999999996 124.8 28.9 C 124.5 29.2 124.3 29.5 124.1 29.799999999999997 C 123.89999999999999 30.199999999999996 123.8 30.599999999999998 123.8 30.999999999999996 L 123.8 38.199999999999996 C 123.8 38.699999999999996 123.8 39.099999999999994 123.89999999999999 39.49999999999999 C 123.99999999999999 39.89999999999999 124.1 40.099999999999994 124.39999999999999 40.29999999999999 C 124.69999999999999 40.49999999999999 125.1 40.59999999999999 125.49999999999999 40.59999999999999 C 125.99999999999999 40.69999999999999 126.69999999999999 40.69999999999999 127.49999999999999 40.69999999999999 L 127.49999999999999 41.999999999999986 C 126.99999999999999 41.999999999999986 126.29999999999998 41.999999999999986 125.49999999999999 41.899999999999984 C 124.69999999999999 41.899999999999984 123.79999999999998 41.899999999999984 122.89999999999999 41.899999999999984 C 121.99999999999999 41.899999999999984 121.1 41.899999999999984 120.19999999999999 41.899999999999984 C 119.29999999999998 41.899999999999984 118.69999999999999 41.899999999999984 118.19999999999999 41.999999999999986 L 118.19999999999999 40.69999999999999 C 118.79999999999998 40.69999999999999 119.29999999999998 40.69999999999999 119.69999999999999 40.59999999999999 C 120.1 40.59999999999999 120.29999999999998 40.499999999999986 120.49999999999999 40.29999999999999 C 120.69999999999999 40.09999999999999 120.79999999999998 39.89999999999999 120.89999999999999 39.59999999999999 C 120.99999999999999 39.29999999999999 120.99999999999999 38.79999999999999 120.99999999999999 38.29999999999999 L 120.99999999999999 30.39999999999999 C 120.99999999999999 29.29999999999999 120.89999999999999 28.59999999999999 120.69999999999999 28.29999999999999 C 120.49999999999999 27.99999999999999 119.89999999999999 27.79999999999999 118.99999999999999 27.79999999999999 L 118.99999999999999 26.69999999999999 C 119.69999999999999 26.599999999999987 120.39999999999999 26.399999999999988 120.99999999999999 26.19999999999999 C 121.59999999999998 25.899999999999988 122.19999999999999 25.599999999999987 122.79999999999998 25.099999999999987 L 124.09999999999998 25.099999999999987 C 123.99999999999999 25.599999999999987 123.99999999999999 26.19999999999999 123.99999999999999 26.799999999999986 C 123.8 27.2 123.8 27.7 123.8 28.2 z" stroke-linecap="round" /></g><g transform="matrix(1 0 0 1 63.25 4.5)" id="Layer_1"  ><path style="stroke: none; stroke-width: 1; stroke-dasharray: none; stroke-linecap: butt; stroke-dashoffset: 0; stroke-linejoin: miter; stroke-miterlimit: 4; fill: rgb(23,26,31); fill-rule: nonzero; opacity: 1;"  transform=" translate(-139.05, -33.85)" d="M 135.1 31.9 C 135.1 32 135.1 32.3 135 32.699999999999996 C 134.9 33.099999999999994 135 33.699999999999996 135.1 34.3 C 135.2 36 135.7 37.4 136.5 38.5 C 137.4 39.6 138.5 40.2 140 40.2 C 141 40.2 141.9 40 142.7 39.5 C 143.5 39 144.2 38.4 144.79999999999998 37.7 L 145.89999999999998 38.300000000000004 C 145.2 39.50000000000001 144.29999999999998 40.50000000000001 143.2 41.300000000000004 C 142.1 42.1 140.79999999999998 42.50000000000001 139.39999999999998 42.50000000000001 C 138.39999999999998 42.50000000000001 137.39999999999998 42.300000000000004 136.49999999999997 41.900000000000006 C 135.59999999999997 41.50000000000001 134.89999999999998 40.900000000000006 134.19999999999996 40.2 C 133.49999999999997 39.400000000000006 132.99999999999997 38.6 132.69999999999996 37.6 C 132.29999999999995 36.6 132.19999999999996 35.5 132.19999999999996 34.4 C 132.19999999999996 32.9 132.39999999999995 31.599999999999998 132.69999999999996 30.5 C 133.09999999999997 29.4 133.59999999999997 28.4 134.19999999999996 27.6 C 134.79999999999995 26.8 135.59999999999997 26.200000000000003 136.49999999999997 25.8 C 137.39999999999998 25.400000000000002 138.39999999999998 25.2 139.39999999999998 25.2 C 140.09999999999997 25.2 140.79999999999998 25.3 141.59999999999997 25.599999999999998 C 142.39999999999995 25.899999999999995 142.99999999999997 26.2 143.49999999999997 26.7 C 144.09999999999997 27.2 144.49999999999997 27.8 144.89999999999998 28.5 C 145.29999999999998 29.2 145.49999999999997 30.1 145.49999999999997 31.1 C 145.49999999999997 31.400000000000002 145.49999999999997 31.5 145.49999999999997 31.700000000000003 C 145.49999999999997 31.900000000000006 145.39999999999998 31.900000000000002 145.39999999999998 32 C 145.39999999999998 32.1 145.29999999999998 32.1 145.09999999999997 32.1 C 144.89999999999995 32.1 144.79999999999995 32.1 144.59999999999997 32.1 L 135.1 32.1 z M 141.8 30.4 C 142.10000000000002 30.4 142.3 30.4 142.4 30.299999999999997 C 142.5 30.199999999999996 142.6 29.999999999999996 142.6 29.699999999999996 C 142.6 28.999999999999996 142.29999999999998 28.199999999999996 141.7 27.499999999999996 C 141.1 26.799999999999997 140.39999999999998 26.399999999999995 139.39999999999998 26.399999999999995 C 138.2 26.399999999999995 137.29999999999998 26.799999999999994 136.59999999999997 27.499999999999996 C 135.89999999999998 28.199999999999996 135.49999999999997 29.199999999999996 135.29999999999995 30.299999999999997 L 141.8 30.299999999999997 z" stroke-linecap="round" /></g><g transform="matrix(1 0 0 1 -60.25 -0.4)" id="Layer_1"  ><path style="stroke: none; stroke-width: 1; stroke-dasharray: none; stroke-linecap: butt; stroke-dashoffset: 0; stroke-linejoin: miter; stroke-miterlimit: 4; fill: rgb(69,157,122); fill-rule: nonzero; opacity: 1;"  transform=" translate(-15.55, -28.95)" d="M 23.9 41.8 C 22.799999999999997 41.8 21.5 41.8 19.799999999999997 41.699999999999996 C 18.199999999999996 41.699999999999996 16.499999999999996 41.699999999999996 14.799999999999997 41.699999999999996 C 13.099999999999998 41.699999999999996 11.399999999999997 41.699999999999996 9.799999999999997 41.699999999999996 C 8.199999999999998 41.699999999999996 6.799999999999997 41.699999999999996 5.6999999999999975 41.8 L 5.6999999999999975 40.599999999999994 C 6.399999999999998 40.599999999999994 6.899999999999998 40.599999999999994 7.399999999999998 40.49999999999999 C 7.799999999999998 40.39999999999999 8.199999999999998 40.199999999999996 8.399999999999999 39.99999999999999 C 8.599999999999998 39.699999999999996 8.799999999999999 39.39999999999999 8.899999999999999 38.89999999999999 C 8.9 38.5 9 37.9 9 37.1 L 9 20.6 C 9 19.900000000000002 9 19.3 8.9 18.900000000000002 C 8.8 18.500000000000004 8.700000000000001 18.200000000000003 8.4 17.900000000000002 C 8.200000000000001 17.700000000000003 7.800000000000001 17.6 7.4 17.500000000000004 C 7 17.400000000000006 6.4 17.400000000000002 5.7 17.400000000000002 L 5.7 16.1 C 6.1000000000000005 16.1 6.800000000000001 16.200000000000003 7.6 16.200000000000003 C 8.5 16.200000000000003 9.4 16.200000000000003 10.399999999999999 16.200000000000003 C 11.399999999999999 16.200000000000003 12.399999999999999 16.200000000000003 13.299999999999999 16.200000000000003 C 14.2 16.200000000000003 14.899999999999999 16.200000000000003 15.399999999999999 16.1 L 15.399999999999999 17.400000000000002 C 14.7 17.400000000000002 14.099999999999998 17.500000000000004 13.7 17.500000000000004 C 13.299999999999999 17.600000000000005 12.899999999999999 17.700000000000003 12.7 17.900000000000002 C 12.5 18.1 12.299999999999999 18.400000000000002 12.2 18.8 C 12.1 19.2 12.1 19.8 12.1 20.5 L 12.1 37 C 12.1 37.8 12.2 38.3 12.299999999999999 38.8 C 12.499999999999998 39.199999999999996 12.799999999999999 39.599999999999994 13.2 39.8 C 13.6 40 14.299999999999999 40.199999999999996 15.1 40.199999999999996 C 15.9 40.3 17 40.3 18.2 40.3 C 19.099999999999998 40.3 19.9 40.199999999999996 20.5 40.099999999999994 C 21.1 39.99999999999999 21.7 39.8 22.1 39.49999999999999 C 22.5 39.199999999999996 22.900000000000002 38.699999999999996 23.200000000000003 38.099999999999994 C 23.500000000000004 37.49999999999999 23.800000000000004 36.8 24.000000000000004 35.8 L 25.400000000000002 35.8 L 23.9 41.8 z" stroke-linecap="round" /></g><g transform="matrix(1 0 0 1 -41.33 -5.7)" id="Layer_1"  ><path style="stroke: none; stroke-width: 1; stroke-dasharray: none; stroke-linecap: butt; stroke-dashoffset: 0; stroke-linejoin: miter; stroke-miterlimit: 4; fill: rgb(69,157,122); fill-rule: nonzero; opacity: 1;"  transform=" translate(-34.47, -23.65)" d="M 32.2 26.3 C 32.2 26.2 32.2 26.2 32.300000000000004 26.1 C 32.400000000000006 25.8 32.6 25.400000000000002 32.800000000000004 25.200000000000003 C 32.900000000000006 25.000000000000004 33.1 24.900000000000002 33.300000000000004 24.800000000000004 C 34.1 24.400000000000006 34.7 23.900000000000006 35.2 23.200000000000003 C 35.400000000000006 23.000000000000004 35.5 22.700000000000003 35.7 22.500000000000004 C 35.7 22.500000000000004 35.7 22.400000000000002 35.7 22.400000000000002 C 35.6 22.500000000000004 35.6 22.6 35.5 22.700000000000003 C 35.1 23.300000000000004 34.5 23.800000000000004 33.9 24.200000000000003 C 33.699999999999996 24.400000000000002 33.4 24.500000000000004 33.199999999999996 24.6 C 32.9 24.700000000000003 32.699999999999996 24.900000000000002 32.49999999999999 25.1 C 32.49999999999999 25.1 32.49999999999999 25.1 32.49999999999999 25.1 C 32.49999999999999 25.1 32.49999999999999 25 32.39999999999999 25 C 32.19999999999999 24.4 32.19999999999999 23.8 32.39999999999999 23.2 C 32.599999999999994 22.8 32.89999999999999 22.4 33.19999999999999 22.2 C 33.69999999999999 21.8 34.19999999999999 21.599999999999998 34.79999999999999 21.5 C 34.99999999999999 21.4 35.19999999999999 21.4 35.39999999999999 21.4 C 35.69999999999999 21.299999999999997 35.89999999999999 21.2 36.099999999999994 21.099999999999998 C 36.199999999999996 20.999999999999996 36.3 20.999999999999996 36.39999999999999 20.9 C 36.39999999999999 20.9 36.39999999999999 20.9 36.39999999999999 21 C 36.69999999999999 21.7 36.79999999999999 22.5 36.69999999999999 23.2 C 36.59999999999999 24.099999999999998 36.09999999999999 24.8 35.29999999999999 25.3 C 34.79999999999999 25.6 34.29999999999999 25.7 33.79999999999999 25.7 C 33.49999999999999 25.7 33.19999999999999 25.599999999999998 32.99999999999999 25.599999999999998 C 32.99999999999999 25.599999999999998 32.89999999999999 25.599999999999998 32.89999999999999 25.599999999999998 C 32.69999999999999 25.799999999999997 32.599999999999994 25.999999999999996 32.49999999999999 26.299999999999997 C 32.49999999999999 26.299999999999997 32.49999999999999 26.4 32.39999999999999 26.4 C 32.5 26.2 32.4 26.3 32.2 26.3 C 32.3 26.3 32.3 26.3 32.2 26.3" stroke-linecap="round" /></g><g transform="matrix(1 0 0 1 -42.66 5.8)" id="Layer_1"  ><path style="stroke: none; stroke-width: 1; stroke-dasharray: none; stroke-linecap: butt; stroke-dashoffset: 0; stroke-linejoin: miter; stroke-miterlimit: 4; fill: rgb(69,157,122); fill-rule: nonzero; opacity: 1;"  transform=" translate(-33.14, -35.15)" d="M 38.3 38.4 C 37.8 39 37.199999999999996 39.5 36.599999999999994 39.9 C 35.89999999999999 40.3 35.199999999999996 40.5 34.3 40.5 C 33.099999999999994 40.5 32.099999999999994 40 31.4 39.1 C 31.099999999999998 38.7 30.9 38.300000000000004 30.7 37.800000000000004 C 31.099999999999998 36.6 32 33.900000000000006 34.9 33.800000000000004 C 37.3 33.800000000000004 38.699999999999996 31.000000000000004 38.3 30.400000000000006 C 37.9 29.800000000000008 37.699999999999996 29.500000000000007 37.199999999999996 29.100000000000005 C 36.699999999999996 28.700000000000006 36.199999999999996 28.400000000000006 35.599999999999994 28.200000000000006 C 34.99999999999999 28.000000000000007 34.39999999999999 27.900000000000006 33.8 27.900000000000006 C 32.9 27.900000000000006 32.099999999999994 28.100000000000005 31.4 28.400000000000006 C 30.7 28.800000000000004 30 29.300000000000004 29.5 29.900000000000006 C 29 30.600000000000005 28.5 31.400000000000006 28.2 32.300000000000004 C 27.9 33.300000000000004 27.7 34.300000000000004 27.7 35.6 C 27.7 36.6 27.8 37.5 28.099999999999998 38.300000000000004 C 28.4 39.1 28.799999999999997 39.800000000000004 29.4 40.50000000000001 C 29.9 41.10000000000001 30.599999999999998 41.60000000000001 31.299999999999997 41.900000000000006 C 31.999999999999996 42.300000000000004 32.8 42.400000000000006 33.699999999999996 42.400000000000006 C 34.9 42.400000000000006 35.9 42.00000000000001 36.9 41.400000000000006 C 39.5 40 38.3 38.4 38.3 38.4 z M 30.2 35.6 C 29.599999999999998 32.2 30.599999999999998 30.900000000000002 31.2 30.3 C 31.8 29.7 33 29.1 34 29.1 C 34.8 29.1 36.2 29.400000000000002 36.6 30.1 C 36.800000000000004 30.400000000000002 36.300000000000004 32.2 34.7 32.5 C 33.1 32.8 30.300000000000004 35 30.400000000000002 36.1 C 30.2 35.9 30.2 35.8 30.2 35.6 z" stroke-linecap="round" /></g></g></g></svg>